/* XPM */
static char * crqt_xpm[] = {
"48 48 104 2",
"  	c None",
". 	c #000000",
"+ 	c #373937",
"@ 	c #0D0F0B",
"# 	c #020302",
"$ 	c #020201",
"% 	c #020301",
"& 	c #060605",
"* 	c #383A38",
"= 	c #131511",
"- 	c #030502",
"; 	c #010200",
"> 	c #010201",
", 	c #161614",
"' 	c #111111",
") 	c #030302",
"! 	c #030201",
"~ 	c #020101",
"{ 	c #030203",
"] 	c #020102",
"^ 	c #0B0D0B",
"/ 	c #030202",
"( 	c #020202",
"_ 	c #020100",
": 	c #0F0E0E",
"< 	c #090909",
"[ 	c #333333",
"} 	c #1A1818",
"| 	c #050405",
"1 	c #3E3E3E",
"2 	c #0B0B0B",
"3 	c #2F2E2C",
"4 	c #202021",
"5 	c #161513",
"6 	c #464644",
"7 	c #010101",
"8 	c #010100",
"9 	c #040403",
"0 	c #11130F",
"a 	c #0C0B0B",
"b 	c #151514",
"c 	c #272626",
"d 	c #222221",
"e 	c #040302",
"f 	c #2F2D2D",
"g 	c #171614",
"h 	c #212122",
"i 	c #3E3E3C",
"j 	c #2C2C2C",
"k 	c #333332",
"l 	c #232323",
"m 	c #2F2C2C",
"n 	c #1A1C1C",
"o 	c #050605",
"p 	c #1E1E1E",
"q 	c #211E21",
"r 	c #211F1F",
"s 	c #0C0B09",
"t 	c #30302E",
"u 	c #0C090A",
"v 	c #090808",
"w 	c #1F1E1D",
"x 	c #242421",
"y 	c #131213",
"z 	c #050404",
"A 	c #2D312D",
"B 	c #413F3A",
"C 	c #0B0B09",
"D 	c #030101",
"E 	c #10110F",
"F 	c #312F2F",
"G 	c #040303",
"H 	c #060606",
"I 	c #282828",
"J 	c #0E0E0D",
"K 	c #020000",
"L 	c #0A0807",
"M 	c #373735",
"N 	c #0D0B0C",
"O 	c #070706",
"P 	c #010000",
"Q 	c #030301",
"R 	c #100D0D",
"S 	c #151414",
"T 	c #0C0C0C",
"U 	c #31312F",
"V 	c #010001",
"W 	c #040202",
"X 	c #080605",
"Y 	c #21201E",
"Z 	c #272929",
"` 	c #41CD52",
" .	c #41CD53",
"..	c #42CD52",
"+.	c #41CE52",
"@.	c #42CC53",
"#.	c #40CD52",
"$.	c #41CD51",
"%.	c #41CE53",
"&.	c #41CC52",
"*.	c #42CD51",
"=.	c #40CC52",
"-.	c #41CE51",
";.	c #41CC51",
"                                                                                                ",
"                                                                                                ",
"                                                                                                ",
"                                                                                                ",
"                                                                                                ",
"                                                                  . .     . .       . . .       ",
"              + @ # $ % &               * = - ; > $ % ,           . . .   . .   . .     . .     ",
"            ' ) ! ~ { ~ ]             ^ / ~ ( $ ; _ $ _ :         . . .   .     .       .       ",
"          < [         } |         1 2 3       4 5 6 7 8 9         .   .   .   . .               ",
"        0               a                     b     c % 9         .   . . .   . .     . .       ",
"      d                                     :       e _ f       . .   . . .   . .     . .       ",
"      g                                   h     i ) / j         .     . .     . .     .         ",
"    k l                                   m   n o p           . . .     .       . . . .         ",
"    q r                                 s ) t                                                   ",
"    u v                               w $ $ x                                                   ",
"    y z o                           A B C ~ D E                                                 ",
"    F G ) 7 H I               J K L M     N 7 _ O                                               ",
"      : ( $ P P 7 $ Q _ ] ]     R           S 7 T                                               ",
"        U { ( P V 7 $ W D X                   Y Z                                               ",
"                                                                                                ",
"                                                                                                ",
"                                                                                                ",
"                                                                                                ",
"                                                ` ` ` ` `  .                                    ",
"                                            ` ` ` ..  +.` ` `                   @.              ",
"                                          ` ` `           ` ` `               ` `               ",
"                                        ` ` `             #.` ` `           ` ` +.              ",
"                                       .` ` $.              ` ` `       %. .` ` ` ` `           ",
"                                      ` ` `                 ` ` `     &.` ` ` ` `  . .          ",
"                                    ` ` ` `                 ` ` `         ` ` `                 ",
"                                    ` ` ` #.              *.` ` `         ` ` `                 ",
"                                    ` ` `                 #.` ` `       ` ` ` `                 ",
"                                  ` ` ` `                 ` ` ` `       ` ` ` `                 ",
"                                   .` ` `                 ` ` `         ` ` `                   ",
"                                  *.` ` `               ` ` ` `         ` ` `                   ",
"                                    ` ` `               ` ` `           ` ` $.                  ",
"                                    ` ` ` `           ` ` ` =.        &.` ` $.                  ",
"                                      ` ` `         ` ` ` -.          ;.` ` `     `             ",
"                                        ` ` ` ` ` ` ` `                 ` ` ` ` ` @.            ",
"                                            ` ` ` `                       =.`                   ",
"                                            ` ` ` `                                             ",
"                                            ..` ` `                                             ",
"                                              ` ` ` +.                                          ",
"                                              -.` ` ` &.                                        ",
"                                                  +.` ` ..                                      ",
"                                                                                                ",
"                                                                                                ",
"                                                                                                "};
